<?xml version="1.0" encoding="utf-8"?>
<!-- Generator: Adobe Illustrator 21.1.0, SVG Export Plug-In . SVG Version: 6.00 Build 0)  -->
<svg version="1.1" id="Camada_1" xmlns="http://www.w3.org/2000/svg" xmlns:xlink="http://www.w3.org/1999/xlink" x="0px" y="0px"
	 viewBox="0 0 516 276" style="enable-background:new 0 0 516 276;" xml:space="preserve">
<path d="M138.3,44.5c-14.2,0-27.1,8.4-32.7,21.5L33.1,232.7h345.4c14.2,0,27.1-8.4,32.7-21.5l72.4-166.7H138.3z M360.1,186.4h-20.8
	L306.2,110v0h-60.5c-10.6,0-15.9,3.2-15.9,9.6c0,6.4,5.3,9.5,15.9,9.5h28.7c21.2,0,31.8,9.6,31.8,28.7s-10.6,28.7-31.8,28.7h-55.4
	h-8.3h-12.5l-31-71.5l-31.1,71.5h-20.8l41.5-95.5h20.8l33.2,76.4v0h60.5c10.6,0,15.9-3.2,15.9-9.6c0-6.4-5.3-9.6-15.9-9.6h-28.7
	c-21.2,0-31.8-9.5-31.8-28.6c0-19.1,10.6-28.7,31.8-28.7h55.4h8.3h12.6l31,71.5l31.1-71.5h20.8L360.1,186.4z"/>
</svg>
