<?xml version="1.0" encoding="utf-8"?>
<!-- Generator: Adobe Illustrator 21.1.0, SVG Export Plug-In . SVG Version: 6.00 Build 0)  -->
<svg version="1.1" id="Camada_1" xmlns="http://www.w3.org/2000/svg" xmlns:xlink="http://www.w3.org/1999/xlink" x="0px" y="0px"
	 viewBox="0 0 347.5 121.4" style="enable-background:new 0 0 347.5 121.4;" xml:space="preserve">
<style type="text/css">
	.st0{fill:#FFFFFF;}
</style>
<g>
	<path class="st0" d="M255.4,12.3h-8.6v1.8h6.4c-0.8,2-2.5,3.4-4.7,3.4c-2.8,0-5.1-2.5-5.1-5.2c0-2.8,2.2-5.3,5.1-5.3
		c1.6,0,2.7,0.7,3.7,1.9h2.3c-1.2-2.3-3.6-3.7-6.1-3.7c-4,0-7,3.2-7,7.1c0,3.9,3.1,7.1,7,7.1c1,0,2.1-0.2,3-0.7
		C253.9,17.5,255.4,15.1,255.4,12.3 M228.9,19.1V5.4h-2v10.4h0l-6.7-10.4H218v13.7h2V8.6h0l6.8,10.6H228.9z M204.9,19.1V5.4h-2v13.7
		H204.9z M188.8,9.6c0,1.7-1.3,2.3-2.8,2.3h-2V7.3h2C187.5,7.3,188.8,7.9,188.8,9.6z M190.8,9.6c0-2.9-2.1-4.1-4.8-4.1h-4v13.7h2
		v-5.4h2C188.6,13.7,190.8,12.5,190.8,9.6z M168,9.6c0,1.7-1.3,2.3-2.8,2.3h-2V7.3h2C166.7,7.3,168,7.9,168,9.6z M170,9.6
		c0-2.9-2.1-4.1-4.8-4.1h-4v13.7h2v-5.4h2C167.9,13.7,170,12.5,170,9.6z M147,12.3c0,0.6-0.1,1.3-0.4,1.8c-0.8,2.1-2.5,3.4-4.8,3.4
		c-2.1,0-3.8-1.1-4.6-3c-0.3-0.7-0.5-1.5-0.5-2.2c0-0.8,0.2-1.5,0.5-2.2c0.8-1.9,2.5-3.1,4.6-3.1C144.8,7,147,9.4,147,12.3z
		 M149,12.3c0-4-3.1-7.1-7.1-7.1c-3.9,0-7.1,3.1-7.1,7.1c0,3.9,3.2,7.1,7.1,7.1C145.8,19.4,149,16.2,149,12.3z M122.3,19.1V5.4h-2
		v5.9h-5.6V5.4h-2v13.7h2v-6h5.6v6H122.3z M100.4,15.2c0-5.2-6-3.5-6-6.4c0-1,0.8-1.9,1.8-1.9c1.2,0,1.9,0.8,1.9,2h2
		c0-2.3-1.6-3.8-3.9-3.8c-2.1,0-3.8,1.6-3.8,3.7c0,2.7,1.7,3.3,3.8,4.1c1.1,0.4,2.2,0.8,2.2,2.2c0,1.3-0.8,2.3-2.2,2.3
		c-1.4,0-2.2-1.1-2.2-2.5h-2c0,2.5,1.7,4.3,4.2,4.3C98.6,19.4,100.4,17.7,100.4,15.2z"/>
	<path class="st0" d="M321.9,85.7c0-10.2-7.2-14.5-15.9-17.1c-3.6-1.1-8.2-2.2-8.2-6.9c0-3.5,2.9-5.6,6.2-5.6c4,0,6.3,2.6,6.8,6.4
		h9.9c-0.2-9.1-7.1-15.4-16.2-15.4c-8.7,0-16.6,6.2-16.6,15.2c0,18.7,24.1,12.9,24.1,24c0,4.6-3.2,7.2-7.6,7.2
		c-5.9,0-8.6-4.2-8.9-9.6h-9.9c0,5.1,1.6,9.5,4.6,12.8c10.3-1.3,20.6-3.1,30.9-5.5C321.6,89.6,321.9,87.7,321.9,85.7 M267.6,75
		c0,10.2-8.1,18.6-18.4,18.6c-10.1,0-18-8.7-18-18.6c0-10.3,7.6-18.8,18.1-18.8C260,56.1,267.6,64.4,267.6,75z M277.3,98.1V48.5
		h-9.9v7.4h-0.2c-3.9-6-10.8-8.9-17.9-8.9c-16,0-28,12-28,28c0,11,5.8,19.9,14.6,24.4c8.5,0.2,17,0.1,25.4-0.3
		c2.3-1.5,4.3-3.5,5.8-6.1h0.2v5.8C270.7,98.6,274,98.4,277.3,98.1z M217.4,57.6v-9h-8.7V30.8h-9.9v17.7h-7.1v9h7.1v39.8
		c3.3,0.3,6.6,0.6,9.9,0.8V57.6H217.4z M184.5,95.8V48.5h-9.9v7.4h-0.2c-3.9-6-10.8-8.9-17.9-8.9c-16,0-28,12-28,28
		c0,5.1,1.3,9.8,3.5,13.8c5,0.6,10,1.3,15.1,1.9c-5.3-3.3-8.7-9.3-8.7-15.9c0-10.3,7.6-18.8,18.1-18.8c10.8,0,18.3,8.3,18.3,18.8
		c0,8.4-5.5,15.5-13.2,17.8c4,0.5,7.9,1.1,11.9,1.6c0.3-0.4,0.6-0.9,0.9-1.3h0.2v1.5l0.8,0.1C178.4,95,181.4,95.4,184.5,95.8z
		 M124.4,57.3V47.1c-5.3,0.2-10.2,1.6-13.4,6.2h-0.2v-4.8h-9.2v37.1c3.3,0.3,6.6,0.6,9.9,0.9V72.4c0-4.8,1.2-10.8,5.8-13.2
		C119.2,58.2,122.2,57.3,124.4,57.3z M88.8,84.7V48.5h-9.9v35.8C82.2,84.4,85.5,84.5,88.8,84.7z M88.8,42.4V30.8h-9.9v11.6H88.8z
		 M60.5,52.1c0,8.7-6.8,11.9-14.6,11.9H35.8V40.2h10.1C53.7,40.2,60.5,43.5,60.5,52.1z M70.7,52.1c0-15-10.9-21.3-24.8-21.3H25.5
		v58.9c3.4-0.8,6.8-1.5,10.3-2.1V73.5h10.1C59.8,73.5,70.7,67.2,70.7,52.1z"/>
	<path class="st0" d="M114.3,96.7c26.8,2.6,53.5,6.7,80.4,9.1c41.4,3.8,82.7,2.1,123.2-8.3c8.9-2.3,26.5-8.1,26.5-8.1
		s-15.1,3.5-21.4,5c-48.7,11.3-97.7,10.2-146.9,3.7c-25.3-3.4-50.5-7.1-75.9-9.2c-24.7-2.1-49.5-1.4-73.9,4.3
		c-8,1.9-23.3,7.5-23.3,7.5s10.6-1.9,15.9-2.8C50.7,92.3,82.5,93.6,114.3,96.7 M168.8,106.2c-42.6-6.5-85.2-10.3-128.2-5.8
		c-8.1,0.8-24.1,3.4-24.1,3.4s57.9-1,81.9,0.6c30.6,2.2,63.4,7.6,93.9,10.2c33.8,2.8,67.4,1.2,100.5-6.6c11.8-2.8,35-10.1,35-10.1
		s-19.5,4.6-26.7,6.2C257.1,114,213,112.9,168.8,106.2z"/>
</g>
</svg>