<?xml version="1.0" encoding="utf-8"?>
<!-- Generator: Adobe Illustrator 21.1.0, SVG Export Plug-In . SVG Version: 6.00 Build 0)  -->
<svg version="1.1" id="Layer_1" xmlns="http://www.w3.org/2000/svg" xmlns:xlink="http://www.w3.org/1999/xlink" x="0px" y="0px"
	 viewBox="0 0 283.4 104.9" style="enable-background:new 0 0 283.4 104.9;" xml:space="preserve">
<style type="text/css">
	.st0{fill:none;}
	.st1{fill:#FFFFFF;}
</style>
<path class="st0" d="M203.7,88.5c2.1-0.1,4.2-0.2,6.4-0.4c-0.1-1.2-0.1-2.2-0.3-3.8C207.9,86.4,205.9,87.7,203.7,88.5z"/>
<path class="st0" d="M145.6,84.9c-0.5,0.1-1.1,0.2-1.6,0.3c0.6,0.1,1.2,0.2,1.9,0.2c0.6,0.1,1.2,0.2,1.8,0.2
	c-0.6-0.2-1.2-0.4-1.7-0.5C145.8,85.1,145.7,84.8,145.6,84.9z"/>
<g>
	<path class="st1" d="M73.7,17.7c-2.4,0-4.1-1.8-4.1-4.2h2c0,1.3,0.8,2.4,2.2,2.4c1.3,0,2.2-1,2.2-2.3c0-1.4-1-1.8-2.2-2.2
		c-2.1-0.8-3.7-1.4-3.7-4c0-2.1,1.7-3.6,3.7-3.6c2.2,0,3.8,1.5,3.8,3.7h-2c0-1.2-0.7-1.9-1.9-1.9c-1,0-1.8,0.9-1.8,1.8
		c0,2.8,5.9,1.1,5.9,6.2C77.8,16.1,76.1,17.7,73.7,17.7z"/>
	<path class="st1" d="M94.4,17.5v-5.8h-5.5v5.8h-2V4.1h2v5.8h5.5V4.1h2v13.4H94.4z"/>
	<path class="st1" d="M112.6,17.7c-3.8,0-7-3.1-7-7c0-3.9,3.1-7,7-7c3.9,0,7,3.1,7,7C119.5,14.6,116.4,17.7,112.6,17.7z M112.6,5.6
		c-2.1,0-3.7,1.1-4.5,3c-0.3,0.7-0.5,1.4-0.5,2.1c0,0.7,0.2,1.5,0.5,2.2c0.8,1.9,2.5,3,4.5,3c2.2,0,3.9-1.3,4.7-3.3
		c0.2-0.6,0.3-1.2,0.3-1.8C117.6,8,115.5,5.6,112.6,5.6z"/>
	<path class="st1" d="M132.5,12.2h-1.9v5.3h-2V4.1h3.9c2.6,0,4.7,1.2,4.7,4.1S135.2,12.2,132.5,12.2z M132.5,5.9h-1.9v4.5h1.9
		c1.5,0,2.8-0.6,2.8-2.3S134,5.9,132.5,5.9z"/>
	<path class="st1" d="M149.9,12.2H148v5.3h-2V4.1h3.9c2.6,0,4.7,1.2,4.7,4.1S152.5,12.2,149.9,12.2z M149.9,5.9H148v4.5h1.9
		c1.5,0,2.8-0.6,2.8-2.3S151.4,5.9,149.9,5.9z"/>
	<path class="st1" d="M163.5,17.5V4.1h2v13.4H163.5z"/>
	<path class="st1" d="M184.1,17.5l-6.6-10.4h0v10.4h-2V4.1h2.1l6.5,10.2h0V4.1h2v13.4H184.1z"/>
	<path class="st1" d="M205.2,17.1c-0.9,0.4-1.9,0.7-2.9,0.7c-3.8,0-6.9-3.1-6.9-6.9c0-3.8,3-7,6.8-7c2.5,0,4.8,1.4,6,3.6H206
		c-1-1.1-2.1-1.8-3.7-1.8c-2.8,0-5,2.4-5,5.2c0,2.7,2.2,5.1,5,5.1c2.1,0,3.9-1.4,4.6-3.3h-6.2v-1.8h8.5
		C209.1,13.6,207.7,15.9,205.2,17.1z"/>
</g>
<path class="st1" d="M213.9,87.5c2.6-0.9,5.1-2.5,7.4-5.1c0.2,2,0.3,3.3,0.4,4.7c2.5-0.2,5.1-0.4,7.7-0.6c0-14.8,0-29.1,0-43.4
	c-2.9,0-5.5,0-8.1,0c0,1.3,0,2.8,0,4.6c-13-8.5-24.3-8-32.8,1.2c-7.7,8.3-8.3,22.2-1.4,31.1c2.9,3.7,6.5,6.9,11,8
	C203.4,87.9,208.7,87.8,213.9,87.5z M190.8,65c0.1-8.6,7-15.6,15.6-15.6c8.5,0,15.4,7.2,15.4,16.1c0,8.3-7.1,15.8-15,15.8
	C197.9,81.4,190.8,74,190.8,65z"/>
<path class="st1" d="M143.4,83.2c0.1,0,0.2,0.3,0.4,0.3c0.7,0.2,1.4,0.4,2.1,0.6c1.9,0.2,3.9,0.5,5.8,0.7c0-14.7,0-28.5,0-42.1
	c-2.6,0-5.1,0-7.7,0c-0.1,1.6-0.2,3.2-0.2,4.7c-0.4-0.1-0.5-0.1-0.6-0.2c-8-7.9-21.7-7.5-29.5-1.1c-8.6,7-11.4,19.9-6.4,30
	c0.8,1.6,1.7,2.7,3.2,3.2c10.3,1.3,20.7,2.7,31,4.1C142.1,83.5,142.7,83.3,143.4,83.2z M113.2,65.1c0-8.7,7.2-15.9,15.8-15.7
	c8.5,0.2,15.3,7.4,15.2,16.3c-0.1,8.2-7.1,15.6-14.9,15.6C120.3,81.3,113.1,74.1,113.2,65.1z"/>
<path class="st1" d="M30.5,76.2c-0.1-3,0.1-5.9-0.1-8.9c-0.2-2.7,0.6-3.6,3.5-3.7c4.3-0.1,8.7-0.3,12.8-1.5
	c7.8-2.3,12.1-9.5,11.6-18c-0.5-7.9-5.6-14.6-13-15.5c-7.6-0.9-15.4-0.8-23.2-1.1c0,17.7,0,34.7,0,52c2.6-0.6,5.4-1.2,8.2-1.6
	C30.5,77.5,30.5,77,30.5,76.2z M30.5,35.5c4.9,0.5,9.2,0.6,13.5,1.7c4.1,1,5.9,4.8,5.5,9.6c-0.3,4.7-2.5,7.6-6.8,8.4
	c-3.9,0.7-7.7,0.7-12.2,1C30.5,49.2,30.5,42.8,30.5,35.5z"/>
<path class="st1" d="M264.3,79.2c2.4-7.7-0.7-14.1-8-17.4c-2.5-1.1-5.1-2.1-7.5-3.4c-2.2-1.2-3.8-3.3-2.6-5.8
	c0.7-1.6,2.6-3.1,4.3-3.6c2.6-0.7,4.6,0.7,5.7,3.3c0.3,0.7,1.1,1.6,1.8,1.7c2.1,0.2,4.1,0.1,6.2,0.1c-0.6-8.6-5.5-13.2-13.3-12.9
	c-7.6,0.3-12.9,6-12.8,13.7c0.1,5.2,2.5,8.9,7.2,11c3,1.4,6.1,2.4,9,4c2.7,1.5,3.6,4.7,2.6,7.5c-1.1,3-3.4,4.2-6.4,4.1
	c-3.2-0.1-5.5-2.2-6.5-5.9c-0.2-0.8-1-2.1-1.6-2.2c-1.9-0.3-3.9-0.1-6-0.1c-0.2,4.4,1,7.9,3.5,11c0.3,0.3,0.7,0.6,1.2,0.8
	c7.4-1,14.8-2.4,22.2-4.1C263.7,80.5,264.2,79.8,264.3,79.2z"/>
<path class="st1" d="M172.4,50.1c2.6-0.1,4.5-0.2,6.5-0.3c0-2.5,0-4.7,0-7.1c-2.3-0.1-4.2-0.2-6.5-0.3c0-4.8,0-9.4,0-14.3
	c-2.9,0-5.2,0-8.1,0c0,4.9,0,9.6,0,14.3c-2.3,0.1-4.2,0.2-6.5,0.3c0,2.5,0,4.5,0,7.1c2.3,0,4.2,0,6.5,0c0,12.6,0,24.2,0,36.3
	c2.6,0.2,5.5,0.5,8.1,0.7C172.4,74.4,172.4,62.3,172.4,50.1z"/>
<path class="st1" d="M90.8,73.1c0.1-4.9,0.1-9.7,0.5-14.6c0.4-4.1,2.9-6.7,7-7.6c0.9-0.2,1.8-0.5,2.7-0.7c0-2.7,0-5.3,0-8.1
	c-4.5-0.4-7.6,2-10.5,5.4c-0.1-1.9-0.3-3.4-0.4-4.7c-2.5,0-4.6,0-7.2,0c0,11.7,0,22.5,0,33.7c2.6,0.2,5.2,0.5,7.8,0.7
	C90.8,75.6,90.8,74.3,90.8,73.1z"/>
<g>
	<path class="st1" d="M73,43.1c-2.9,0-5.2,0-7.8,0c0,10.7,0,21.8,0,32.4c2.6,0,5.2,0.1,7.8,0.3C73,64.7,73,54.1,73,43.1z"/>
	<path class="st1" d="M73,28.2c-2.9,0-5.2,0-7.8,0c0,2.9,0,5.8,0,8.7c2.6,0,5.2,0,7.8,0C73,34,73,31.1,73,28.2z"/>
</g>
<g>
	<path class="st1" d="M93.2,84.6c21.9,2.1,43.8,5.5,65.7,7.5c33.9,3.1,67.6,1.8,100.7-6.8c7.3-1.9,21.7-6.7,21.7-6.7
		s-12.4,2.9-17.5,4c-39.8,9.3-79.9,8.3-120.1,3c-20.7-2.7-41.3-5.8-62.1-7.5c-20.2-1.7-40.5-1.2-60.4,3.5c-6.5,1.5-19,6.1-19,6.1
		s8.7-1.5,13-2.3C41.1,81.1,67.2,82.1,93.2,84.6z"/>
	<path class="st1" d="M138.5,93.1c-34.8-5.3-69.7-8.4-104.8-4.8C27,89,13.9,91.2,13.9,91.2s47.3-0.9,66.9,0.5
		c25,1.8,51.8,6.2,76.8,8.3c27.6,2.3,55.1,1,82.1-5.4c9.6-2.3,28.6-8.3,28.6-8.3s-16,3.8-21.8,5.1C210.6,99.5,174.6,98.6,138.5,93.1
		z"/>
</g>
</svg>
